<svg width="99" height="96" viewBox="0 0 99 96" fill="none" xmlns="http://www.w3.org/2000/svg">
<path d="M96.7171 36.3672C90.3113 10.8577 63.9513 -4.5072 37.8416 2.04914C11.7309 8.60547 -4.24216 34.6005 2.16323 60.11C8.56942 85.6205 34.9284 100.984 61.0391 94.4291C87.1488 87.8718 103.123 61.8777 96.7171 36.3672Z" fill="url(#paint0_linear)"/>
<path d="M30.9108 6.9161C31.4522 7.7486 32.1172 8.77254 32.7832 9.79547C32.5708 9.9839 32.3585 10.1723 32.1461 10.3608C31.0823 9.44551 30.0175 8.53127 28.7653 7.4555C29.529 7.26308 30.0883 7.12348 30.9108 6.9161ZM8.80411 25.3328C8.69543 26.257 9.32755 27.247 9.44719 28.2281C9.57281 29.261 9.29963 30.3627 9.52993 31.3597C10.0942 33.8163 10.167 33.7984 9.81807 35.7226C9.75626 36.0626 9.72735 36.4075 9.68448 36.7495C9.37341 39.2171 9.31159 41.5072 10.9497 43.7714C11.826 44.9838 13.2169 45.1582 13.9975 46.24C14.18 46.9648 14.508 47.6906 14.503 48.4134C14.497 49.1662 16.2618 49.3317 15.2907 50.1811C16.0155 50.5341 16.8171 50.9239 17.4622 51.238C17.4312 50.8541 17.3794 50.1622 17.2996 49.1452C17.9497 49.6079 18.4013 49.8372 18.7313 50.1821C19.529 51.0166 20.175 52.0186 21.0564 52.7415C22.0035 53.5181 23.1571 54.0485 22.6476 55.5889C25.0384 56.9398 27.4682 58.2409 30.3485 57.7315C31.6845 57.4952 32.8969 57.0036 34.1701 58.1073C34.8341 58.6836 35.8839 58.8551 36.7912 59.0764C36.9866 59.1233 37.3216 58.5909 37.5818 58.3356C41.8919 62.1392 41.9776 62.1592 46.868 60.541C46.8371 60.4204 46.8022 60.1921 46.7772 60.1931C46.0714 60.223 45.3665 60.2988 44.6606 60.3207C42.2867 60.3965 41.8391 59.9079 41.4143 57.4034C41.2887 56.6667 40.6616 56.0146 40.2907 55.3695C38.8022 55.6487 37.6426 55.8651 36.4024 56.0974C36.526 54.4214 36.6307 53.0076 36.7413 51.5321C35.8171 51.7644 35.0933 51.9458 34.3605 52.1293C33.9916 53.1702 34.195 54.4254 32.6347 54.9299C30.9936 55.4623 30.1132 54.4144 29.0265 53.8052C28.533 51.8392 28.0504 49.9149 27.5718 48.0116C29.6955 45.3626 29.6955 45.3626 32.8291 45.5012C32.8779 45.0476 32.9288 44.5899 33.0115 43.8362C34.5848 43.7834 36.201 43.7285 37.4582 43.6866C38.6975 45.0775 39.7503 46.2589 40.9826 47.6438C41.3655 45.248 39.6247 43.8781 39.0524 41.8242C39.9657 40.7445 40.9906 39.579 41.9617 38.3696C42.843 37.2719 42.7633 36.9987 41.3266 35.3597C41.8171 34.8731 42.6646 34.4325 42.7324 33.8931C42.9527 32.1573 44.2977 31.4903 45.4173 30.5681C45.3416 29.9808 45.2658 29.3926 45.193 28.8223C46.0913 28.3308 46.9288 27.8712 47.7174 27.4395C47.9308 27.8841 48.0823 28.1982 48.2887 28.6299C49.5519 27.3966 50.7095 26.267 51.867 25.1384C51.7224 24.9739 51.5779 24.8094 51.4333 24.6449C50.8151 25.0825 50.198 25.5192 49.4373 26.0586C48.9158 25.7236 48.3396 25.3527 47.52 24.8253C48.5061 23.6279 49.5669 22.7575 50.0564 21.6369C50.6177 20.3528 52.1312 20.2201 52.862 19.1892C51.7334 17.9709 50.6088 17.4265 49.2359 17.2909C48.197 17.1883 47.3246 16.7565 46.7045 15.8164C46.3276 15.2461 45.7852 14.7635 45.2438 14.3318C45.0056 14.1404 44.5868 14.1753 44.203 14.0985C44.0086 14.7915 43.8381 15.3966 43.6098 16.2062C41.19 15.5093 40.0295 11.6639 36.9118 13.935C37.192 15.3418 36.2717 17.0387 37.7802 18.3169C37.9856 18.4913 38.0743 19.2012 37.9258 19.3308C36.4931 20.592 37.509 22.278 37.3366 23.6678C34.7064 24.0257 35.0963 21.7505 34.513 20.7456C33.2997 20.7695 32.3385 20.923 31.4273 20.7705C30.516 20.6179 29.6406 20.1982 28.7772 19.8293C27.837 19.4285 27.6416 18.593 27.8709 17.7157C28.2558 16.2501 29.6875 15.4415 30.2359 13.961C30.5519 13.1085 31.9677 13.9261 32.8869 13.932C33.5738 13.937 34.2618 13.622 35.7304 13.2531C34.3346 12.7197 33.6676 12.4634 33.0464 12.2262C33.507 11.3468 33.9348 10.7257 34.173 10.0387C35.0544 7.50235 35.3964 7.32788 37.6117 8.50236C37.9398 8.67683 38.2568 8.87124 38.6825 9.1155C37.8909 10.1245 37.1262 11.0995 36.3575 12.0816C38.8879 11.7556 38.8879 11.7556 41.851 13.3039C42.4821 12.7466 43.1282 12.1773 43.7085 11.6639C43.3156 11.267 42.9906 10.939 42.6865 10.6309C43.0893 9.80443 43.4213 9.12148 43.7394 8.46645C40.8012 7.1873 38.0763 6.00185 35.5369 4.89617C34.0843 5.18231 32.839 5.42758 31.5928 5.67384C31.5529 5.4874 31.514 5.30195 31.4741 5.11551C32.6147 4.82937 33.7533 4.54324 34.7912 4.28302C34.9926 3.73268 35.176 3.23219 35.3545 2.74365C34.6745 2.95203 34.0016 3.17535 33.3366 3.40965C33.4333 3.54524 33.535 3.6898 33.6486 3.85131C33.0036 3.88521 32.4203 3.91611 31.8869 3.94403C30.8739 4.33785 29.8799 4.76457 28.9038 5.2182C28.3944 6.02578 27.9128 6.79048 27.4293 7.55817C27.8201 8.11151 28.2568 8.72768 29.175 10.0248C27.6536 9.61701 26.9367 9.42358 26.3485 9.26605C26.5001 8.52627 26.6107 7.98389 26.6875 7.61301C26.0953 7.4824 25.5459 7.36177 25.0135 7.24412C23.5609 8.0836 22.1621 8.99187 20.8201 9.96296C21.1999 10.0317 21.5449 10.0936 21.9258 10.1614C21.5559 10.7376 21.3026 11.1304 21.1152 11.4226C20.6416 11.2979 20.0524 11.0806 19.5439 10.9151C15.1311 14.3308 11.3714 18.4425 8.40332 23.0347C8.75128 23.6439 8.91577 24.3836 8.80411 25.3328Z" fill="#CBD5FF"/>
<path d="M39.0969 2.41816C40.4888 1.94657 41.6792 2.2646 42.743 3.4989C43.5107 4.39023 45.073 4.22073 45.8935 5.29152C46.0241 5.46201 46.5506 5.32743 46.8905 5.33441C46.6722 5.84688 46.4927 6.27259 46.1647 7.04427C47.5077 7.55375 49.1597 7.66143 49.7849 8.51886C51.395 10.7242 53.5157 11.0094 56.3861 11.145C55.7031 10.1938 54.8048 9.48896 54.8945 8.95157C55.065 7.94259 55.4708 7.12503 54.1159 6.68933C54.5745 6.31047 55.0102 5.95055 55.4419 5.59262C55.3083 5.05623 55.1877 4.58066 55.0441 4.00539C55.3562 3.85085 55.736 3.76311 55.9534 3.52682C56.1588 3.30449 56.1946 2.92562 56.397 2.35334C55.5227 2.09711 54.753 1.92165 54.069 1.24567C53.8557 1.03331 53.6234 0.839873 53.3841 0.654429C48.3013 0.305475 43.067 0.73718 37.8427 2.04924C37.6682 2.09311 37.4967 2.14098 37.3232 2.18685C37.7669 2.54178 38.3013 2.68835 39.0969 2.41816Z" fill="#CBD5FF"/>
<path d="M64.9714 88.4356C65.77 87.9251 66.2217 87.4276 66.5238 86.631C66.6663 86.2532 66.772 85.6799 67.0492 85.5622C69.7361 84.4236 70.9256 82.1415 71.6564 79.5582C72.0542 78.1505 73.1539 77.1903 74.2306 76.8872C76.5238 76.2412 77.0821 74.5782 77.6753 72.6869C78.5656 69.8484 79.1559 66.8683 81.1479 64.4904C81.2267 64.3967 81.3284 64.2801 81.3323 64.1714C81.3503 63.5871 81.3393 63.0009 81.3393 62.2481C79.79 62.5702 78.8308 60.7865 77.2745 61.3877C75.8508 61.9361 74.5088 61.5323 73.115 61.2192C72.6055 61.1046 71.9694 61.5592 71.1927 61.8214C70.2974 60.632 69.1918 59.1644 68.0233 57.614C66.6833 57.64 65.1618 57.6699 63.5337 57.7018C61.7251 56.9431 59.764 56.1195 57.9066 55.3399C57.1499 55.9919 56.9644 56.7447 55.7142 56.4206C54.3901 56.0767 52.6962 55.3439 51.4958 56.981C51.2376 56.4545 51.0831 56.1434 50.8129 55.5931C50.0691 56.4406 49.9016 57.6549 48.6185 57.8274C47.1299 58.0278 48.5646 60.3319 46.8687 60.5413C47.2017 61.8673 47.5347 63.1933 47.9834 64.98C47.3862 65.9441 46.6145 67.1933 45.8428 68.4406C47.1199 69.2402 45.9983 70.7188 46.5297 71.634C47.8577 72.5313 49.1299 73.2831 50.2755 74.1953C51.2705 74.9879 52.0053 76.1455 53.0651 76.8085C54.2306 77.5383 55.6344 77.8873 56.6514 78.29C57.9385 82.3848 58.3044 86.1126 57.5397 89.9052C57.777 90.2821 58.3463 90.7716 58.3184 91.2223C58.2486 92.3309 58.3443 93.4296 58.5138 94.4875C58.5427 94.6659 58.5776 94.8254 58.6135 94.975C59.4231 94.8135 60.2316 94.632 61.0412 94.4296C61.2047 94.3878 61.3652 94.3429 61.5277 94.3C62.1559 92.0418 62.8587 89.7856 64.9714 88.4356Z" fill="#CBD5FF"/>
<path d="M88.9887 23.4905C87.4413 24.7497 87.5639 26.2153 87.9608 27.8534C88.1273 28.5463 88.4094 29.3489 88.213 29.968C87.3247 32.7836 88.1911 35.6739 87.3984 38.5932C88.0634 38.5642 88.4094 38.5493 89.1402 38.5184C89.2658 39.9551 90.2269 41.0827 89.4493 42.5413C89.1871 43.0329 89.4941 44.3738 89.9209 44.5972C92.2579 45.8195 92.3047 48.978 94.7285 49.8833C95.7973 49.0897 96.9338 48.2452 98.1263 47.3609C98.0954 43.7258 97.6397 40.0418 96.7175 36.3679C95.3436 30.8983 93.0505 25.8972 90.0405 21.4765C89.9418 21.4865 89.8431 21.4954 89.7424 21.5054C89.558 22.0318 89.5171 23.0607 88.9887 23.4905Z" fill="#CBD5FF"/>
<path d="M74.8896 9.98477C75.4649 10.7056 76.0322 11.4145 76.432 11.914C78.0761 11.9878 79.5527 12.0536 81.1977 12.1263C81.0143 12.9688 80.8996 13.4952 80.6394 14.6897C81.7321 15.2829 83.0133 15.9788 84.3592 16.7106C83.8428 17.3248 83.2316 18.0486 82.9036 18.4384C83.8946 20.1463 84.7062 21.5441 85.5287 22.9618C86.2476 23.0775 87.0382 23.2051 88.2107 23.3936C87.6823 22.0935 89.5347 20.6966 87.4679 19.7006C87.3692 18.9329 86.9624 18.1473 86.9126 17.3806C84.2576 14.2789 81.2147 11.5451 77.8767 9.23003C76.9375 8.89902 75.9545 9.07749 74.8896 9.98477Z" fill="#CBD5FF"/>
<path d="M45.8359 49.2868C45.0194 49.2469 43.9386 49.8023 43.4152 49.4503C41.3604 48.0705 39.7881 49.3965 37.8838 49.8312C38.9945 52.1941 39.5448 50.1582 40.2517 49.8741C42.3663 49.7145 44.3015 52.2848 46.7442 50.1841C46.4082 49.8352 46.134 49.3018 45.8359 49.2868Z" fill="#CBD5FF"/>
<path d="M48.1611 50.9715C48.6517 51.3344 49.191 51.7352 49.7155 52.125C50.9328 50.144 53.3825 51.0851 55.2608 49.483C52.6726 49.7232 50.5928 49.9077 48.5171 50.135C48.4094 50.147 48.3416 50.5288 48.1611 50.9715Z" fill="#CBD5FF"/>
<path d="M61.5621 30.8329C60.9525 30.8076 60.2811 30.7784 59.6283 30.7499C59.1005 31.5942 53.7015 36.3055 56.5199 36.048C59.3382 35.7905 61.2498 34.5697 61.7367 31.725C61.8191 31.6547 61.6611 31.3006 61.5621 30.8329Z" fill="#CBD5FF"/>
<defs>
<linearGradient id="paint0_linear" x1="49.4402" y1="95.9414" x2="49.4402" y2="0.536488" gradientUnits="userSpaceOnUse">
<stop stop-color="#6E52FC"/>
<stop offset="1" stop-color="#6398FF"/>
</linearGradient>
</defs>
</svg>
