<svg width="164" height="116" viewBox="0 0 164 116" fill="none" xmlns="http://www.w3.org/2000/svg">
<path d="M127.234 4.97496C132.567 5.41146 137.786 7.58568 142.956 12.8052C159.581 32.8146 162.117 53.6205 160.015 65.5134C158.975 71.3979 154.746 80.742 147.56 89.369C140.387 97.9803 130.351 105.777 117.772 108.714C92.2347 114.677 54.7695 113.549 28.97 99.805C17.905 93.9103 10.8446 86.6986 6.93707 78.1877C3.02454 69.6657 2.22209 59.7301 3.87979 48.3021C5.58196 36.5674 9.65336 28.6419 14.9759 23.3406C20.3018 18.036 26.964 15.2757 33.9933 14.0238C45.3651 11.9984 57.48 13.9348 66.1805 15.3253C68.3015 15.6643 70.2196 15.9709 71.8746 16.1798C78.8673 17.0621 85.5636 15.9149 91.9599 14.0825C95.8321 12.9732 99.6803 11.5826 103.415 10.2331C105.784 9.37676 108.108 8.53704 110.362 7.79633C116.259 5.85926 121.845 4.53388 127.234 4.97496Z" stroke="#CBD5FF" stroke-width="2"/>
</svg>
