<svg width="213" height="151" viewBox="0 0 213 151" fill="none" xmlns="http://www.w3.org/2000/svg">
<rect x="53.25" y="44.4118" width="35.5" height="8.88235" fill="#5C3BFE"/>
<rect x="97.625" y="26.6471" width="17.7647" height="8.875" transform="rotate(90 97.625 26.6471)" fill="#5C3BFE"/>
<rect x="35.5" y="44.4118" width="17.7647" height="8.875" transform="rotate(90 35.5 44.4118)" fill="#5C3BFE"/>
<rect x="44.375" y="26.6471" width="17.7647" height="8.875" transform="rotate(90 44.375 26.6471)" fill="#5C3BFE"/>
<rect x="62.125" y="26.6471" width="17.7647" height="8.875" transform="rotate(90 62.125 26.6471)" fill="#5C3BFE"/>
<rect x="115.375" y="26.6471" width="17.7647" height="8.875" transform="rotate(90 115.375 26.6471)" fill="#5C3BFE"/>
<rect x="124.25" y="44.4118" width="17.7647" height="8.875" transform="rotate(90 124.25 44.4118)" fill="#5C3BFE"/>
<rect x="186.375" y="44.4118" width="17.7647" height="8.875" transform="rotate(90 186.375 44.4118)" fill="#5C3BFE"/>
<rect x="213" y="35.5294" width="35.5294" height="8.875" transform="rotate(90 213 35.5294)" fill="#5C3BFE"/>
<rect x="195.25" y="79.9412" width="62.1765" height="8.875" transform="rotate(90 195.25 79.9412)" fill="#5C3BFE"/>
<rect x="26.625" y="106.588" width="35.5294" height="8.875" transform="rotate(90 26.625 106.588)" fill="#5C3BFE"/>
<rect x="177.5" y="62.1765" width="8.88236" height="53.25" transform="rotate(90 177.5 62.1765)" fill="#5C3BFE"/>
<rect x="106.5" y="17.7647" width="8.88235" height="8.875" transform="rotate(90 106.5 17.7647)" fill="#5C3BFE"/>
<rect x="53.25" y="17.7647" width="8.88235" height="8.875" transform="rotate(90 53.25 17.7647)" fill="#5C3BFE"/>
<rect x="47.9248" y="64.3971" width="8.88235" height="8.875" transform="rotate(90 47.9248 64.3971)" fill="#5C3BFE"/>
<rect x="68.3374" y="70.1706" width="8.88235" height="8.875" transform="rotate(90 68.3374 70.1706)" fill="#5C3BFE"/>
<rect x="59.4624" y="79.0529" width="8.88235" height="8.875" transform="rotate(90 59.4624 79.0529)" fill="#5C3BFE"/>
<rect x="77.2124" y="79.0529" width="8.88235" height="8.875" transform="rotate(90 77.2124 79.0529)" fill="#5C3BFE"/>
<rect x="96.7373" y="64.3971" width="8.88235" height="8.875" transform="rotate(90 96.7373 64.3971)" fill="#5C3BFE"/>
<rect x="177.5" y="35.5294" width="8.88235" height="8.875" transform="rotate(90 177.5 35.5294)" fill="#5C3BFE"/>
<rect x="186.375" y="8.88235" width="8.88235" height="8.875" transform="rotate(90 186.375 8.88235)" fill="#5C3BFE"/>
<rect x="195.25" y="17.7647" width="8.88235" height="8.875" transform="rotate(90 195.25 17.7647)" fill="#5C3BFE"/>
<rect x="204.125" y="26.6471" width="8.88235" height="8.875" transform="rotate(90 204.125 26.6471)" fill="#5C3BFE"/>
<rect x="204.125" y="71.0588" width="8.88235" height="8.875" transform="rotate(90 204.125 71.0588)" fill="#5C3BFE"/>
<rect x="168.625" y="133.235" width="8.88235" height="8.875" transform="rotate(90 168.625 133.235)" fill="#5C3BFE"/>
<rect x="142" y="133.235" width="8.88235" height="8.875" transform="rotate(90 142 133.235)" fill="#5C3BFE"/>
<rect x="106.5" y="133.235" width="8.88235" height="8.875" transform="rotate(90 106.5 133.235)" fill="#5C3BFE"/>
<rect x="79.875" y="133.235" width="8.88235" height="8.875" transform="rotate(90 79.875 133.235)" fill="#5C3BFE"/>
<rect x="53.25" y="133.235" width="8.88235" height="8.875" transform="rotate(90 53.25 133.235)" fill="#5C3BFE"/>
<rect x="35.5" y="97.7059" width="8.88235" height="8.875" transform="rotate(90 35.5 97.7059)" fill="#5C3BFE"/>
<rect x="26.625" y="53.2941" width="44.4118" height="8.875" transform="rotate(90 26.625 53.2941)" fill="#5C3BFE"/>
<rect x="168.625" y="26.6471" width="8.88235" height="17.75" transform="rotate(90 168.625 26.6471)" fill="#5C3BFE"/>
<rect x="186.375" y="142.118" width="8.88235" height="17.75" transform="rotate(90 186.375 142.118)" fill="#5C3BFE"/>
<rect x="159.75" y="142.118" width="8.88235" height="17.75" transform="rotate(90 159.75 142.118)" fill="#5C3BFE"/>
<rect x="97.625" y="142.118" width="8.88235" height="17.75" transform="rotate(90 97.625 142.118)" fill="#5C3BFE"/>
<rect x="71" y="124.353" width="8.88235" height="17.75" transform="rotate(90 71 124.353)" fill="#5C3BFE"/>
<rect x="17.75" y="88.8235" width="8.88235" height="17.75" transform="rotate(90 17.75 88.8235)" fill="#5C3BFE"/>
<rect x="17.75" y="71.0588" width="8.88235" height="17.75" transform="rotate(90 17.75 71.0588)" fill="#5C3BFE"/>
<rect x="118.481" y="88.8235" width="8.88235" height="17.75" transform="rotate(90 118.481 88.8235)" fill="#5C3BFE"/>
<rect x="118.481" y="71.0588" width="8.88235" height="17.75" transform="rotate(90 118.481 71.0588)" fill="#5C3BFE"/>
<rect x="44.375" y="142.118" width="8.88235" height="17.75" transform="rotate(90 44.375 142.118)" fill="#5C3BFE"/>
<rect x="168.625" y="124.353" width="8.88236" height="71" transform="rotate(90 168.625 124.353)" fill="#5C3BFE"/>
<rect x="177.5" width="8.88235" height="26.625" transform="rotate(90 177.5 0)" fill="#5C3BFE"/>
<rect x="150.875" y="26.6471" width="8.875" height="17.7647" transform="rotate(-180 150.875 26.6471)" fill="#5C3BFE"/>
</svg>
