<svg width="100" height="100" viewBox="0 0 100 100" fill="none" xmlns="http://www.w3.org/2000/svg">
<path d="M42.0805 41.6618C42.0805 37.8352 39.4764 37.8352 39.4764 37.8352H38.0968H28.7638H28.7598V46.0484H38.8117C40.5498 46.0484 42.0805 45.4945 42.0805 41.6618Z" fill="white"/>
<path d="M66.9082 46.0481C61.2266 46.0481 60.4331 51.7155 60.4331 51.7155H72.5212C72.5212 51.7196 72.5958 46.0481 66.9082 46.0481Z" fill="white"/>
<path d="M39.4767 51.7205H28.7661V61.561H38.2541C38.4153 61.561 38.6529 61.569 38.9369 61.561C40.4615 61.5227 43.3597 61.0877 43.3597 56.7797C43.3597 51.6721 39.4767 51.7205 39.4767 51.7205Z" fill="white"/>
<path d="M50 0C22.4301 0 0 22.4301 0 50C0 77.5679 22.4301 100 50 100C77.5679 100 100 77.5679 100 50C100 22.4301 77.5719 0 50 0ZM58.8476 33.4629H74.0313V37.9965H58.8476V33.4629ZM51.1701 57.2364C51.1701 68.4685 39.4768 68.102 39.4768 68.102H28.7662H28.452H20.3275V31.2958H28.452H28.7662H39.4768C45.2993 31.2958 49.8933 34.5122 49.8933 41.098C49.8933 47.6819 44.2782 48.1008 44.2782 48.1008C51.6797 48.0988 51.1701 57.2364 51.1701 57.2364ZM79.5779 56.6322H60.5031C60.5031 63.4718 66.9822 63.0408 66.9822 63.0408C73.0968 63.0408 72.8833 59.0812 72.8833 59.0812H79.3664C79.3664 69.5903 66.7707 68.8673 66.7707 68.8673C51.6596 68.8673 52.6303 54.7994 52.6303 54.7994C52.6303 54.7994 52.6162 40.657 66.7707 40.657C81.6664 40.657 79.5738 56.6322 79.5779 56.6322Z" fill="white"/>
</svg>
