<svg width="100" height="100" viewBox="0 0 100 100" fill="none" xmlns="http://www.w3.org/2000/svg">
<path d="M51.351 49.9104C51.5302 49.8542 51.7083 49.8 51.8875 49.7469C51.4562 48.7802 50.9781 47.7823 50.4344 46.7104C40.6427 49.6021 31.2687 49.6396 29.5927 49.6104C29.5885 49.7396 29.5844 49.8698 29.5844 50C29.5844 54.925 31.3531 59.6573 34.574 63.3698C35.649 61.6385 41.3333 53.151 51.351 49.9104ZM63.3073 34.525C59.6052 31.3385 54.8896 29.5865 50 29.5865C48.5219 29.5865 47.0354 29.749 45.575 30.0719C46.6417 31.5104 49.9094 36.0469 52.9771 41.6469C59.6531 39.0896 62.6729 35.3854 63.3073 34.525ZM37.6229 66.2156C41.2156 68.9646 45.4917 70.4167 50 70.4167C52.6917 70.4167 55.3083 69.9 57.7802 68.8802C57.4354 66.8979 56.2448 60.8594 53.5021 53.6667C42.4521 57.5719 38.2854 64.9219 37.6229 66.2156ZM48.4625 43.0469C45.2969 37.4635 42.001 32.8646 41.0969 31.6281C35.5375 34.3281 31.449 39.475 30.0896 45.4802H30.174C32.2906 45.4802 39.8052 45.3031 48.4625 43.0469ZM57.8812 52.5906C60.3021 59.3167 61.4187 64.9156 61.7385 66.7031C66.1729 63.5802 69.2094 58.7844 70.1188 53.4615C69.2146 53.1906 65.9458 52.3083 61.8323 52.3083C60.4823 52.3083 59.1552 52.4031 57.8812 52.5906ZM50 0C22.3844 0 0 22.3854 0 50C0 77.6156 22.3844 100 50 100C77.6156 100 100 77.6156 100 50C100 22.3854 77.6156 0 50 0ZM50 74.4708C36.5062 74.4708 25.5292 63.4937 25.5292 50C25.5292 36.5062 36.5062 25.5292 50 25.5292C63.4937 25.5292 74.4708 36.5062 74.4708 50C74.4708 63.4937 63.4937 74.4708 50 74.4708ZM54.8031 45.1854C55.2542 46.1156 55.6771 47.0427 56.0625 47.9469C56.1885 48.2417 56.3125 48.5385 56.4333 48.8344C57.8781 48.6615 59.4229 48.574 61.0271 48.574C65.4698 48.574 69.1708 49.2271 70.4031 49.4719C70.2885 45.0437 68.724 40.7417 65.9729 37.2906C65.1354 38.3594 61.7062 42.3042 54.8031 45.1854Z" fill="white"/>
</svg>
