<svg width="100" height="100" viewBox="0 0 100 100" fill="none" xmlns="http://www.w3.org/2000/svg">
<path fill-rule="evenodd" clip-rule="evenodd" d="M50 0C22.3858 0 0 22.3858 0 50C0 77.6142 22.3858 100 50 100C77.6142 100 100 77.6142 100 50C100 22.3858 77.6142 0 50 0ZM39.007 23.4944C41.8509 23.365 42.76 23.3333 49.9985 23.3333C57.2392 23.3333 58.145 23.365 60.9889 23.4944C63.8278 23.6244 65.7667 24.0739 67.4667 24.7333C69.2223 25.4139 70.7057 26.325 72.189 27.8084C73.6724 29.2906 74.5835 30.7784 75.2668 32.5323C75.9224 34.2279 76.3724 36.1657 76.5057 39.0046C76.6335 41.8491 76.6668 42.758 76.6668 50.0003C76.6668 57.2426 76.6335 58.1493 76.5057 60.9937C76.3724 63.8315 75.9224 65.7699 75.2668 67.466C74.5835 69.2194 73.6724 70.7072 72.189 72.1894C70.7073 73.6727 69.2217 74.5861 67.4684 75.2672C65.7717 75.9267 63.8317 76.3761 60.9928 76.5061C58.1483 76.6356 57.2422 76.6672 49.9993 76.6672C42.7576 76.6672 41.8492 76.6356 39.0048 76.5061C36.1664 76.3761 34.2281 75.9267 32.5314 75.2672C30.7786 74.5861 29.2908 73.6727 27.8091 72.1894C26.3263 70.7072 25.4152 69.2194 24.7335 67.4655C24.0746 65.7699 23.6252 63.8321 23.4946 60.9932C23.3657 58.1487 23.3335 57.2426 23.3335 50.0003C23.3335 42.758 23.3668 41.8485 23.4941 39.0041C23.6218 36.1662 24.0718 34.2279 24.733 32.5318C25.4163 30.7784 26.3274 29.2906 27.8108 27.8084C29.293 26.3256 30.7808 25.4145 32.5347 24.7333C34.2303 24.0739 36.1681 23.6244 39.007 23.4944ZM49.9985 23.3333C49.9999 23.3333 50.0013 23.3333 50.0027 23.3333H49.9943C49.9957 23.3333 49.9971 23.3333 49.9985 23.3333Z" fill="white"/>
<path fill-rule="evenodd" clip-rule="evenodd" d="M47.6102 28.139C48.0747 28.1383 48.5744 28.1385 49.1137 28.1387L50.0025 28.139C57.1225 28.139 57.9664 28.1645 60.7781 28.2923C63.3782 28.4112 64.7893 28.8457 65.7293 29.2107C66.9737 29.694 67.861 30.2718 68.7938 31.2051C69.7271 32.1385 70.3049 33.0274 70.7893 34.2718C71.1543 35.2107 71.5893 36.6219 71.7077 39.2219C71.8355 42.033 71.8632 42.8775 71.8632 49.9942C71.8632 57.111 71.8355 57.9554 71.7077 60.7666C71.5888 63.3666 71.1543 64.7777 70.7893 65.7166C70.306 66.9611 69.7271 67.8472 68.7938 68.78C67.8604 69.7133 66.9743 70.2911 65.7293 70.7744C64.7904 71.1411 63.3782 71.5744 60.7781 71.6933C57.967 71.8211 57.1225 71.8489 50.0025 71.8489C42.8818 71.8489 42.0379 71.8211 39.2268 71.6933C36.6268 71.5733 35.2156 71.1389 34.2751 70.7739C33.0306 70.2905 32.1417 69.7128 31.2084 68.7794C30.275 67.8461 29.6972 66.9594 29.2128 65.7144C28.8478 64.7755 28.4128 63.3644 28.2944 60.7643C28.1667 57.9532 28.1411 57.1087 28.1411 49.9876C28.1411 42.8664 28.1667 42.0264 28.2944 39.2152C28.4133 36.6152 28.8478 35.2041 29.2128 34.2641C29.6961 33.0196 30.275 32.1307 31.2084 31.1974C32.1417 30.264 33.0306 29.6862 34.2751 29.2018C35.2151 28.8351 36.6268 28.4018 39.2268 28.2823C41.6868 28.1712 42.6402 28.1379 47.6102 28.1323V28.139ZM64.2367 32.567C62.47 32.567 61.0366 33.9987 61.0366 35.766C61.0366 37.5326 62.47 38.966 64.2367 38.966C66.0033 38.966 67.4367 37.5326 67.4367 35.766C67.4367 33.9993 66.0033 32.5659 64.2367 32.5659V32.567ZM36.3086 49.9999C36.3086 42.4371 42.4403 36.3053 50.0032 36.3053H50.0026C57.5655 36.3053 63.6955 42.4371 63.6955 49.9999C63.6955 57.5628 57.566 63.6917 50.0032 63.6917C42.4403 63.6917 36.3086 57.5628 36.3086 49.9999Z" fill="white"/>
<path fill-rule="evenodd" clip-rule="evenodd" d="M50.0023 41.1116C54.9112 41.1116 58.8912 45.0911 58.8912 50.0006C58.8912 54.9095 54.9112 58.8895 50.0023 58.8895C45.0928 58.8895 41.1133 54.9095 41.1133 50.0006C41.1133 45.0911 45.0928 41.1116 50.0023 41.1116V41.1116Z" fill="white"/>
</svg>
