<svg width="100" height="100" viewBox="0 0 100 100" fill="none" xmlns="http://www.w3.org/2000/svg">
<path fill-rule="evenodd" clip-rule="evenodd" d="M50 0C22.3858 0 0 22.3858 0 50C0 77.6142 22.3858 100 50 100C77.6142 100 100 77.6142 100 50C100 22.3858 77.6142 0 50 0ZM28.1299 33.9725C28.1299 36.6795 30.1649 38.8455 33.3113 38.8455C37.69 38.8455 38.713 35.5968 38.6772 33.9725C38.6161 31.2044 36.6422 29.0983 33.4347 29.0983C30.2271 29.0983 28.1299 31.2044 28.1299 33.9725ZM28.6839 70.907H38.0604V42.6975H28.6839V70.907ZM71.8701 70.907H62.4948V55.8156C62.4948 52.0229 61.1372 49.4363 57.7445 49.4363C55.1544 49.4363 53.6117 51.1811 52.9338 52.8654C52.6859 53.4681 52.6254 54.3105 52.6254 55.1535V70.907H43.2495C43.2495 70.907 43.3722 45.344 43.2495 42.6975H52.6254V46.6917C53.8714 44.7695 56.1008 42.0354 61.0755 42.0354C67.2444 42.0354 71.8701 46.0672 71.8701 54.7317V70.907Z" fill="white"/>
</svg>
