<svg width="100" height="100" viewBox="0 0 100 100" fill="none" xmlns="http://www.w3.org/2000/svg">
<path fill-rule="evenodd" clip-rule="evenodd" d="M0 50C0 22.3858 22.3858 0 50 0C77.6142 0 100 22.3858 100 50C100 77.6142 77.6142 100 50 100C22.3858 100 0 77.6142 0 50ZM41.9593 36.5353L25.951 28.6259C25.814 28.5582 25.6834 28.5262 25.5655 28.5262C25.3974 28.5262 25.2553 28.5915 25.1553 28.7107C25.0574 28.8273 25 28.9958 25 29.2066V63.1618C25 63.7397 25.428 64.4239 25.951 64.6823L40.7446 71.9915C40.9501 72.0931 41.1459 72.1412 41.3228 72.1412C41.8213 72.1412 42.1709 71.7601 42.1709 71.1204V36.8738C42.1709 36.7305 42.089 36.5994 41.9593 36.5353ZM75.0847 71.9803L60.7095 64.8779L76.5111 39.5044V71.1091C76.5111 71.9759 75.8692 72.3679 75.0847 71.9803ZM43.688 39.0771V56.4787L59.3414 64.2127L43.688 39.0771ZM59.817 28.3909L76.1344 36.4531C76.3377 36.5535 76.41 36.8043 76.2909 36.9957L60.2325 62.7817L49.0054 44.7534L59.0628 28.6033C59.1698 28.4318 59.3673 28.3333 59.5658 28.3333C59.5685 28.3333 59.5711 28.3337 59.5738 28.3342C59.5764 28.3346 59.5789 28.335 59.5816 28.3351C59.6622 28.3372 59.7429 28.3542 59.817 28.3909Z" fill="white"/>
</svg>
